<svg width="357" height="41" viewBox="0 0 357 41" fill="none" xmlns="http://www.w3.org/2000/svg">
<path d="M23.6719 38.8125C23.6719 38.9688 23.6172 39.1094 23.5078 39.2344C23.4141 39.3594 23.25 39.4609 23.0156 39.5391C22.7812 39.6172 22.4688 39.6797 22.0781 39.7266C21.6875 39.7734 21.1953 39.7969 20.6016 39.7969C19.9922 39.7969 19.4844 39.7734 19.0781 39.7266C18.6875 39.6797 18.375 39.6172 18.1406 39.5391C17.9219 39.4609 17.7578 39.3594 17.6484 39.2344C17.5547 39.1094 17.5078 38.9688 17.5078 38.8125V26.5547H6.16406V38.8125C6.16406 38.9688 6.11719 39.1094 6.02344 39.2344C5.92969 39.3594 5.76562 39.4609 5.53125 39.5391C5.29688 39.6172 4.98438 39.6797 4.59375 39.7266C4.20312 39.7734 3.70312 39.7969 3.09375 39.7969C2.5 39.7969 2 39.7734 1.59375 39.7266C1.20312 39.6797 0.890625 39.6172 0.65625 39.5391C0.421875 39.4609 0.25 39.3594 0.140625 39.2344C0.046875 39.1094 0 38.9688 0 38.8125V10.1719C0 10.0156 0.046875 9.875 0.140625 9.75C0.25 9.625 0.421875 9.52344 0.65625 9.44531C0.890625 9.36719 1.20312 9.30469 1.59375 9.25781C2 9.21094 2.5 9.1875 3.09375 9.1875C3.70312 9.1875 4.20312 9.21094 4.59375 9.25781C4.98438 9.30469 5.29688 9.36719 5.53125 9.44531C5.76562 9.52344 5.92969 9.625 6.02344 9.75C6.11719 9.875 6.16406 10.0156 6.16406 10.1719V21.3047H17.5078V10.1719C17.5078 10.0156 17.5547 9.875 17.6484 9.75C17.7578 9.625 17.9219 9.52344 18.1406 9.44531C18.375 9.36719 18.6875 9.30469 19.0781 9.25781C19.4844 9.21094 19.9922 9.1875 20.6016 9.1875C21.1953 9.1875 21.6875 9.21094 22.0781 9.25781C22.4688 9.30469 22.7812 9.36719 23.0156 9.44531C23.25 9.52344 23.4141 9.625 23.5078 9.75C23.6172 9.875 23.6719 10.0156 23.6719 10.1719V38.8125ZM55.125 37.3594C55.3125 37.9219 55.4297 38.3672 55.4766 38.6953C55.5234 39.0234 55.4609 39.2734 55.2891 39.4453C55.1172 39.6016 54.8125 39.6953 54.375 39.7266C53.9375 39.7734 53.3359 39.7969 52.5703 39.7969C51.7734 39.7969 51.1484 39.7812 50.6953 39.75C50.2578 39.7344 49.9219 39.6953 49.6875 39.6328C49.4531 39.5547 49.2891 39.4531 49.1953 39.3281C49.1016 39.2031 49.0234 39.0391 48.9609 38.8359L46.9219 32.7422H35.5312L33.6094 38.6719C33.5469 38.8906 33.4609 39.0781 33.3516 39.2344C33.2578 39.375 33.0938 39.4922 32.8594 39.5859C32.6406 39.6641 32.3203 39.7188 31.8984 39.75C31.4922 39.7812 30.9531 39.7969 30.2812 39.7969C29.5625 39.7969 29 39.7734 28.5938 39.7266C28.1875 39.6797 27.9062 39.5703 27.75 39.3984C27.5938 39.2109 27.5391 38.9531 27.5859 38.625C27.6328 38.2969 27.75 37.8594 27.9375 37.3125L37.2891 10.4062C37.3828 10.1406 37.4922 9.92969 37.6172 9.77344C37.7422 9.60156 37.9375 9.47656 38.2031 9.39844C38.4844 9.30469 38.8672 9.25 39.3516 9.23438C39.8359 9.20313 40.4766 9.1875 41.2734 9.1875C42.1953 9.1875 42.9297 9.20313 43.4766 9.23438C44.0234 9.25 44.4453 9.30469 44.7422 9.39844C45.0547 9.47656 45.2734 9.60156 45.3984 9.77344C45.5391 9.94531 45.6562 10.1797 45.75 10.4766L55.125 37.3594ZM41.2031 15.1172H41.1797L36.8906 28.0078H45.4922L41.2031 15.1172ZM80.1562 18.5391C80.1562 20.2422 79.8906 21.75 79.3594 23.0625C78.8281 24.375 78.0547 25.4844 77.0391 26.3906C76.0234 27.2812 74.7734 27.9609 73.2891 28.4297C71.8203 28.8984 70.0859 29.1328 68.0859 29.1328H65.5547V38.8125C65.5547 38.9688 65.5 39.1094 65.3906 39.2344C65.2969 39.3594 65.1328 39.4609 64.8984 39.5391C64.6641 39.6172 64.3516 39.6797 63.9609 39.7266C63.5703 39.7734 63.0703 39.7969 62.4609 39.7969C61.8672 39.7969 61.3672 39.7734 60.9609 39.7266C60.5703 39.6797 60.2578 39.6172 60.0234 39.5391C59.7891 39.4609 59.625 39.3594 59.5312 39.2344C59.4375 39.1094 59.3906 38.9688 59.3906 38.8125V11.5312C59.3906 10.7969 59.5781 10.25 59.9531 9.89062C60.3438 9.51562 60.8516 9.32812 61.4766 9.32812H68.625C69.3438 9.32812 70.0234 9.35937 70.6641 9.42188C71.3203 9.46875 72.1016 9.58594 73.0078 9.77344C73.9141 9.94531 74.8281 10.2734 75.75 10.7578C76.6875 11.2422 77.4844 11.8594 78.1406 12.6094C78.7969 13.3437 79.2969 14.2109 79.6406 15.2109C79.9844 16.1953 80.1562 17.3047 80.1562 18.5391ZM73.7109 18.9844C73.7109 17.9219 73.5234 17.0469 73.1484 16.3594C72.7734 15.6719 72.3125 15.1641 71.7656 14.8359C71.2188 14.5078 70.6406 14.3047 70.0312 14.2266C69.4375 14.1328 68.8203 14.0859 68.1797 14.0859H65.5547V24.375H68.3203C69.3047 24.375 70.125 24.2422 70.7812 23.9766C71.4531 23.7109 72 23.3438 72.4219 22.875C72.8438 22.3906 73.1641 21.8203 73.3828 21.1641C73.6016 20.4922 73.7109 19.7656 73.7109 18.9844ZM99.0703 31.2891C98.3828 33.0391 97.7031 34.4844 97.0312 35.625C96.375 36.7656 95.6641 37.6719 94.8984 38.3438C94.1484 39 93.3203 39.4531 92.4141 39.7031C91.5234 39.9688 90.5 40.1016 89.3438 40.1016C88.9219 40.1016 88.5078 40.0703 88.1016 40.0078C87.6953 39.9609 87.3125 39.8906 86.9531 39.7969C86.5938 39.7031 86.2812 39.5938 86.0156 39.4688C85.75 39.3438 85.5547 39.2266 85.4297 39.1172C85.3047 39.0078 85.2031 38.8906 85.125 38.7656C85.0625 38.625 85.0078 38.4453 84.9609 38.2266C84.9141 38.0078 84.875 37.7344 84.8438 37.4062C84.8281 37.0625 84.8203 36.6406 84.8203 36.1406C84.8203 35.2344 84.8828 34.5938 85.0078 34.2188C85.1484 33.8281 85.3594 33.6328 85.6406 33.6328C85.7812 33.6328 85.9375 33.6875 86.1094 33.7969C86.2812 33.9062 86.4844 34.0234 86.7188 34.1484C86.9688 34.2734 87.25 34.3906 87.5625 34.5C87.8906 34.5938 88.2734 34.6406 88.7109 34.6406C89.0391 34.6406 89.3438 34.6094 89.625 34.5469C89.9062 34.4688 90.1719 34.3281 90.4219 34.125C90.6719 33.9219 90.9219 33.6406 91.1719 33.2812C91.4219 32.9062 91.6875 32.4219 91.9688 31.8281L81.9844 11.5078C81.7656 11.0234 81.6328 10.6328 81.5859 10.3359C81.5547 10.0234 81.6328 9.78125 81.8203 9.60938C82.0078 9.4375 82.3203 9.32812 82.7578 9.28125C83.2109 9.21875 83.8125 9.1875 84.5625 9.1875C85.2969 9.1875 85.8828 9.20313 86.3203 9.23438C86.7578 9.26562 87.1094 9.33594 87.375 9.44531C87.6406 9.53906 87.8438 9.6875 87.9844 9.89062C88.125 10.0781 88.2656 10.3281 88.4062 10.6406L92.6719 19.8281C93.1406 20.8125 93.5859 21.7969 94.0078 22.7812C94.4297 23.75 94.8359 24.7344 95.2266 25.7344H95.2969C95.6094 24.6875 95.9375 23.6719 96.2812 22.6875C96.6406 21.6875 97.0312 20.6406 97.4531 19.5469L100.945 10.2188C101.023 10 101.125 9.82812 101.25 9.70312C101.375 9.5625 101.562 9.45312 101.812 9.375C102.062 9.29688 102.406 9.25 102.844 9.23438C103.281 9.20313 103.852 9.1875 104.555 9.1875C105.273 9.1875 105.844 9.21094 106.266 9.25781C106.688 9.30469 106.992 9.39844 107.18 9.53906C107.367 9.66406 107.453 9.84375 107.438 10.0781C107.422 10.3125 107.344 10.6172 107.203 10.9922L99.0703 31.2891ZM147.398 37.7109C147.398 38.3672 147.242 38.8594 146.93 39.1875C146.617 39.5 146.18 39.6562 145.617 39.6562H112.781C112.234 39.6562 111.789 39.5 111.445 39.1875C111.117 38.8594 110.953 38.3672 110.953 37.7109V10.0781C110.953 9.92187 111 9.78906 111.094 9.67969C111.203 9.57031 111.375 9.48438 111.609 9.42188C111.844 9.34375 112.156 9.28906 112.547 9.25781C112.938 9.21094 113.414 9.1875 113.977 9.1875C114.555 9.1875 115.031 9.21094 115.406 9.25781C115.797 9.28906 116.109 9.34375 116.344 9.42188C116.578 9.48438 116.742 9.57031 116.836 9.67969C116.945 9.78906 117 9.92187 117 10.0781V34.6406H126.164V10.0781C126.164 9.92187 126.211 9.78906 126.305 9.67969C126.414 9.57031 126.578 9.48438 126.797 9.42188C127.031 9.34375 127.344 9.28906 127.734 9.25781C128.125 9.21094 128.602 9.1875 129.164 9.1875C129.727 9.1875 130.195 9.21094 130.57 9.25781C130.961 9.28906 131.273 9.34375 131.508 9.42188C131.742 9.48438 131.906 9.57031 132 9.67969C132.109 9.78906 132.164 9.92187 132.164 10.0781V34.6406H141.352V10.0781C141.352 9.92187 141.398 9.78906 141.492 9.67969C141.602 9.57031 141.773 9.48438 142.008 9.42188C142.242 9.34375 142.547 9.28906 142.922 9.25781C143.312 9.21094 143.797 9.1875 144.375 9.1875C144.938 9.1875 145.406 9.21094 145.781 9.25781C146.172 9.28906 146.484 9.34375 146.719 9.42188C146.953 9.48438 147.125 9.57031 147.234 9.67969C147.344 9.78906 147.398 9.92187 147.398 10.0781V37.7109ZM172.008 37.2422C172.008 37.6953 171.984 38.0781 171.938 38.3906C171.906 38.6875 171.852 38.9297 171.773 39.1172C171.695 39.3047 171.594 39.4453 171.469 39.5391C171.359 39.6172 171.234 39.6562 171.094 39.6562H155.859C155.344 39.6562 154.906 39.5078 154.547 39.2109C154.203 38.8984 154.031 38.3984 154.031 37.7109V11.2734C154.031 10.5859 154.203 10.0938 154.547 9.79688C154.906 9.48438 155.344 9.32812 155.859 9.32812H171C171.141 9.32812 171.266 9.36719 171.375 9.44531C171.484 9.52344 171.578 9.66406 171.656 9.86719C171.734 10.0547 171.789 10.3047 171.82 10.6172C171.867 10.9141 171.891 11.2969 171.891 11.7656C171.891 12.2031 171.867 12.5781 171.82 12.8906C171.789 13.1875 171.734 13.4297 171.656 13.6172C171.578 13.8047 171.484 13.9453 171.375 14.0391C171.266 14.1172 171.141 14.1562 171 14.1562H160.172V21.5625H169.336C169.477 21.5625 169.602 21.6094 169.711 21.7031C169.836 21.7812 169.938 21.9141 170.016 22.1016C170.094 22.2734 170.148 22.5156 170.18 22.8281C170.227 23.125 170.25 23.4922 170.25 23.9297C170.25 24.3828 170.227 24.7578 170.18 25.0547C170.148 25.3516 170.094 25.5938 170.016 25.7812C169.938 25.9531 169.836 26.0781 169.711 26.1562C169.602 26.2344 169.477 26.2734 169.336 26.2734H160.172V34.8281H171.094C171.234 34.8281 171.359 34.875 171.469 34.9688C171.594 35.0469 171.695 35.1797 171.773 35.3672C171.852 35.5547 171.906 35.8047 171.938 36.1172C171.984 36.4141 172.008 36.7891 172.008 37.2422ZM201.141 38.8125C201.141 38.9688 201.086 39.1094 200.977 39.2344C200.883 39.3594 200.719 39.4609 200.484 39.5391C200.25 39.6172 199.938 39.6797 199.547 39.7266C199.156 39.7734 198.664 39.7969 198.07 39.7969C197.461 39.7969 196.953 39.7734 196.547 39.7266C196.156 39.6797 195.844 39.6172 195.609 39.5391C195.391 39.4609 195.227 39.3594 195.117 39.2344C195.023 39.1094 194.977 38.9688 194.977 38.8125V26.5547H183.633V38.8125C183.633 38.9688 183.586 39.1094 183.492 39.2344C183.398 39.3594 183.234 39.4609 183 39.5391C182.766 39.6172 182.453 39.6797 182.062 39.7266C181.672 39.7734 181.172 39.7969 180.562 39.7969C179.969 39.7969 179.469 39.7734 179.062 39.7266C178.672 39.6797 178.359 39.6172 178.125 39.5391C177.891 39.4609 177.719 39.3594 177.609 39.2344C177.516 39.1094 177.469 38.9688 177.469 38.8125V10.1719C177.469 10.0156 177.516 9.875 177.609 9.75C177.719 9.625 177.891 9.52344 178.125 9.44531C178.359 9.36719 178.672 9.30469 179.062 9.25781C179.469 9.21094 179.969 9.1875 180.562 9.1875C181.172 9.1875 181.672 9.21094 182.062 9.25781C182.453 9.30469 182.766 9.36719 183 9.44531C183.234 9.52344 183.398 9.625 183.492 9.75C183.586 9.875 183.633 10.0156 183.633 10.1719V21.3047H194.977V10.1719C194.977 10.0156 195.023 9.875 195.117 9.75C195.227 9.625 195.391 9.52344 195.609 9.44531C195.844 9.36719 196.156 9.30469 196.547 9.25781C196.953 9.21094 197.461 9.1875 198.07 9.1875C198.664 9.1875 199.156 9.21094 199.547 9.25781C199.938 9.30469 200.25 9.36719 200.484 9.44531C200.719 9.52344 200.883 9.625 200.977 9.75C201.086 9.875 201.141 10.0156 201.141 10.1719V38.8125ZM232.43 38.8594C232.43 39.0156 232.375 39.1562 232.266 39.2812C232.172 39.3906 232.008 39.4844 231.773 39.5625C231.539 39.6406 231.219 39.6953 230.812 39.7266C230.422 39.7734 229.93 39.7969 229.336 39.7969C228.742 39.7969 228.242 39.7734 227.836 39.7266C227.445 39.6953 227.133 39.6406 226.898 39.5625C226.68 39.4844 226.523 39.3906 226.43 39.2812C226.336 39.1562 226.289 39.0156 226.289 38.8594V22.875C226.289 22.2656 226.297 21.6719 226.312 21.0938C226.328 20.5 226.352 19.9766 226.383 19.5234H226.336C226.211 19.7422 226.062 20 225.891 20.2969C225.719 20.5781 225.531 20.8828 225.328 21.2109C225.141 21.5234 224.938 21.8516 224.719 22.1953C224.5 22.5234 224.281 22.8438 224.062 23.1562L213.516 38.8828C213.391 39.0547 213.258 39.2031 213.117 39.3281C212.992 39.4531 212.82 39.5547 212.602 39.6328C212.398 39.6953 212.141 39.7344 211.828 39.75C211.531 39.7812 211.141 39.7969 210.656 39.7969C210.047 39.7969 209.555 39.7734 209.18 39.7266C208.805 39.6953 208.508 39.6406 208.289 39.5625C208.086 39.4844 207.945 39.3828 207.867 39.2578C207.789 39.1328 207.75 38.9844 207.75 38.8125V10.125C207.75 9.96875 207.797 9.83594 207.891 9.72656C208 9.60156 208.172 9.5 208.406 9.42188C208.656 9.34375 208.977 9.28906 209.367 9.25781C209.758 9.21094 210.25 9.1875 210.844 9.1875C211.453 9.1875 211.953 9.21094 212.344 9.25781C212.734 9.28906 213.047 9.34375 213.281 9.42188C213.516 9.5 213.68 9.60156 213.773 9.72656C213.867 9.83594 213.914 9.96875 213.914 10.125V26.2031C213.914 26.7031 213.906 27.2344 213.891 27.7969C213.875 28.3594 213.852 28.9062 213.82 29.4375H213.867C214.133 28.9688 214.469 28.4062 214.875 27.75C215.281 27.0938 215.703 26.4531 216.141 25.8281L226.688 10.1016C226.797 9.94531 226.914 9.8125 227.039 9.70312C227.164 9.57813 227.328 9.47656 227.531 9.39844C227.75 9.32031 228.016 9.26562 228.328 9.23438C228.641 9.20313 229.039 9.1875 229.523 9.1875C230.117 9.1875 230.594 9.21094 230.953 9.25781C231.328 9.28906 231.625 9.34375 231.844 9.42188C232.062 9.5 232.211 9.60156 232.289 9.72656C232.383 9.83594 232.43 9.97656 232.43 10.1484V38.8594ZM263.742 38.8594C263.742 39.0156 263.688 39.1562 263.578 39.2812C263.484 39.3906 263.32 39.4844 263.086 39.5625C262.852 39.6406 262.531 39.6953 262.125 39.7266C261.734 39.7734 261.242 39.7969 260.648 39.7969C260.055 39.7969 259.555 39.7734 259.148 39.7266C258.758 39.6953 258.445 39.6406 258.211 39.5625C257.992 39.4844 257.836 39.3906 257.742 39.2812C257.648 39.1562 257.602 39.0156 257.602 38.8594V22.875C257.602 22.2656 257.609 21.6719 257.625 21.0938C257.641 20.5 257.664 19.9766 257.695 19.5234H257.648C257.523 19.7422 257.375 20 257.203 20.2969C257.031 20.5781 256.844 20.8828 256.641 21.2109C256.453 21.5234 256.25 21.8516 256.031 22.1953C255.812 22.5234 255.594 22.8438 255.375 23.1562L244.828 38.8828C244.703 39.0547 244.57 39.2031 244.43 39.3281C244.305 39.4531 244.133 39.5547 243.914 39.6328C243.711 39.6953 243.453 39.7344 243.141 39.75C242.844 39.7812 242.453 39.7969 241.969 39.7969C241.359 39.7969 240.867 39.7734 240.492 39.7266C240.117 39.6953 239.82 39.6406 239.602 39.5625C239.398 39.4844 239.258 39.3828 239.18 39.2578C239.102 39.1328 239.062 38.9844 239.062 38.8125V10.125C239.062 9.96875 239.109 9.83594 239.203 9.72656C239.312 9.60156 239.484 9.5 239.719 9.42188C239.969 9.34375 240.289 9.28906 240.68 9.25781C241.07 9.21094 241.562 9.1875 242.156 9.1875C242.766 9.1875 243.266 9.21094 243.656 9.25781C244.047 9.28906 244.359 9.34375 244.594 9.42188C244.828 9.5 244.992 9.60156 245.086 9.72656C245.18 9.83594 245.227 9.96875 245.227 10.125V26.2031C245.227 26.7031 245.219 27.2344 245.203 27.7969C245.188 28.3594 245.164 28.9062 245.133 29.4375H245.18C245.445 28.9688 245.781 28.4062 246.188 27.75C246.594 27.0938 247.016 26.4531 247.453 25.8281L258 10.1016C258.109 9.94531 258.227 9.8125 258.352 9.70312C258.477 9.57813 258.641 9.47656 258.844 9.39844C259.062 9.32031 259.328 9.26562 259.641 9.23438C259.953 9.20313 260.352 9.1875 260.836 9.1875C261.43 9.1875 261.906 9.21094 262.266 9.25781C262.641 9.28906 262.938 9.34375 263.156 9.42188C263.375 9.5 263.523 9.60156 263.602 9.72656C263.695 9.83594 263.742 9.97656 263.742 10.1484V38.8594ZM260.156 1.19531C260.156 2.05469 260.008 2.88281 259.711 3.67969C259.414 4.46094 258.93 5.15625 258.258 5.76562C257.602 6.35937 256.727 6.83594 255.633 7.19531C254.555 7.55469 253.227 7.73438 251.648 7.73438C250.117 7.73438 248.812 7.57031 247.734 7.24219C246.656 6.91406 245.773 6.46875 245.086 5.90625C244.414 5.32812 243.922 4.64062 243.609 3.84375C243.297 3.03125 243.141 2.14844 243.141 1.19531C243.141 0.960938 243.18 0.773438 243.258 0.632812C243.352 0.476562 243.5 0.351562 243.703 0.257812C243.906 0.164062 244.18 0.101562 244.523 0.0703125C244.883 0.0234375 245.328 0 245.859 0C246.359 0 246.773 0.0234375 247.102 0.0703125C247.43 0.117188 247.68 0.1875 247.852 0.28125C248.023 0.375 248.141 0.5 248.203 0.65625C248.281 0.796875 248.32 0.96875 248.32 1.17188C248.32 1.54688 248.391 1.89844 248.531 2.22656C248.688 2.55469 248.906 2.84375 249.188 3.09375C249.484 3.32812 249.844 3.52344 250.266 3.67969C250.688 3.83594 251.156 3.91406 251.672 3.91406C252.172 3.91406 252.625 3.84375 253.031 3.70312C253.438 3.54687 253.781 3.35156 254.062 3.11719C254.359 2.86719 254.578 2.57812 254.719 2.25C254.875 1.90625 254.953 1.53125 254.953 1.125C254.953 0.9375 254.984 0.773438 255.047 0.632812C255.109 0.492188 255.227 0.375 255.398 0.28125C255.586 0.1875 255.828 0.117188 256.125 0.0703125C256.438 0.0234375 256.828 0 257.297 0C257.859 0 258.32 0.0234375 258.68 0.0703125C259.055 0.101562 259.352 0.164062 259.57 0.257812C259.789 0.351562 259.938 0.476562 260.016 0.632812C260.109 0.773438 260.156 0.960938 260.156 1.19531Z" fill="#1E293B"/>
<path d="M276.961 36.2812C276.961 37.7344 276.703 38.7109 276.188 39.2109C275.688 39.7109 274.781 39.9609 273.469 39.9609C272.156 39.9609 271.25 39.7188 270.75 39.2344C270.25 38.7344 270 37.7969 270 36.4219C270 34.9531 270.25 33.9688 270.75 33.4688C271.266 32.9688 272.188 32.7188 273.516 32.7188C274.812 32.7188 275.711 32.9688 276.211 33.4688C276.711 33.9531 276.961 34.8906 276.961 36.2812ZM306.891 38.8125C306.891 38.9688 306.836 39.1094 306.727 39.2344C306.633 39.3594 306.469 39.4609 306.234 39.5391C306 39.6172 305.688 39.6797 305.297 39.7266C304.906 39.7734 304.414 39.7969 303.82 39.7969C303.211 39.7969 302.703 39.7734 302.297 39.7266C301.906 39.6797 301.594 39.6172 301.359 39.5391C301.141 39.4609 300.977 39.3594 300.867 39.2344C300.773 39.1094 300.727 38.9688 300.727 38.8125V26.5547H289.383V38.8125C289.383 38.9688 289.336 39.1094 289.242 39.2344C289.148 39.3594 288.984 39.4609 288.75 39.5391C288.516 39.6172 288.203 39.6797 287.812 39.7266C287.422 39.7734 286.922 39.7969 286.312 39.7969C285.719 39.7969 285.219 39.7734 284.812 39.7266C284.422 39.6797 284.109 39.6172 283.875 39.5391C283.641 39.4609 283.469 39.3594 283.359 39.2344C283.266 39.1094 283.219 38.9688 283.219 38.8125V10.1719C283.219 10.0156 283.266 9.875 283.359 9.75C283.469 9.625 283.641 9.52344 283.875 9.44531C284.109 9.36719 284.422 9.30469 284.812 9.25781C285.219 9.21094 285.719 9.1875 286.312 9.1875C286.922 9.1875 287.422 9.21094 287.812 9.25781C288.203 9.30469 288.516 9.36719 288.75 9.44531C288.984 9.52344 289.148 9.625 289.242 9.75C289.336 9.875 289.383 10.0156 289.383 10.1719V21.3047H300.727V10.1719C300.727 10.0156 300.773 9.875 300.867 9.75C300.977 9.625 301.141 9.52344 301.359 9.44531C301.594 9.36719 301.906 9.30469 302.297 9.25781C302.703 9.21094 303.211 9.1875 303.82 9.1875C304.414 9.1875 304.906 9.21094 305.297 9.25781C305.688 9.30469 306 9.36719 306.234 9.44531C306.469 9.52344 306.633 9.625 306.727 9.75C306.836 9.875 306.891 10.0156 306.891 10.1719V38.8125ZM331.477 37.2422C331.477 37.6953 331.453 38.0781 331.406 38.3906C331.375 38.6875 331.32 38.9297 331.242 39.1172C331.164 39.3047 331.062 39.4453 330.938 39.5391C330.828 39.6172 330.703 39.6562 330.562 39.6562H315.328C314.812 39.6562 314.375 39.5078 314.016 39.2109C313.672 38.8984 313.5 38.3984 313.5 37.7109V11.2734C313.5 10.5859 313.672 10.0938 314.016 9.79688C314.375 9.48438 314.812 9.32812 315.328 9.32812H330.469C330.609 9.32812 330.734 9.36719 330.844 9.44531C330.953 9.52344 331.047 9.66406 331.125 9.86719C331.203 10.0547 331.258 10.3047 331.289 10.6172C331.336 10.9141 331.359 11.2969 331.359 11.7656C331.359 12.2031 331.336 12.5781 331.289 12.8906C331.258 13.1875 331.203 13.4297 331.125 13.6172C331.047 13.8047 330.953 13.9453 330.844 14.0391C330.734 14.1172 330.609 14.1562 330.469 14.1562H319.641V21.5625H328.805C328.945 21.5625 329.07 21.6094 329.18 21.7031C329.305 21.7812 329.406 21.9141 329.484 22.1016C329.562 22.2734 329.617 22.5156 329.648 22.8281C329.695 23.125 329.719 23.4922 329.719 23.9297C329.719 24.3828 329.695 24.7578 329.648 25.0547C329.617 25.3516 329.562 25.5938 329.484 25.7812C329.406 25.9531 329.305 26.0781 329.18 26.1562C329.07 26.2344 328.945 26.2734 328.805 26.2734H319.641V34.8281H330.562C330.703 34.8281 330.828 34.875 330.938 34.9688C331.062 35.0469 331.164 35.1797 331.242 35.3672C331.32 35.5547 331.375 35.8047 331.406 36.1172C331.453 36.4141 331.477 36.7891 331.477 37.2422ZM356.93 11.8594C356.93 12.3125 356.906 12.7031 356.859 13.0312C356.828 13.3437 356.773 13.6016 356.695 13.8047C356.617 13.9922 356.516 14.1328 356.391 14.2266C356.281 14.3203 356.156 14.3672 356.016 14.3672H348.422V38.8125C348.422 38.9688 348.367 39.1094 348.258 39.2344C348.164 39.3594 348 39.4609 347.766 39.5391C347.531 39.6172 347.211 39.6797 346.805 39.7266C346.414 39.7734 345.922 39.7969 345.328 39.7969C344.734 39.7969 344.234 39.7734 343.828 39.7266C343.438 39.6797 343.125 39.6172 342.891 39.5391C342.656 39.4609 342.484 39.3594 342.375 39.2344C342.281 39.1094 342.234 38.9688 342.234 38.8125V14.3672H334.641C334.484 14.3672 334.352 14.3203 334.242 14.2266C334.133 14.1328 334.039 13.9922 333.961 13.8047C333.883 13.6016 333.82 13.3437 333.773 13.0312C333.742 12.7031 333.727 12.3125 333.727 11.8594C333.727 11.3906 333.742 10.9922 333.773 10.6641C333.82 10.3359 333.883 10.0781 333.961 9.89062C334.039 9.6875 334.133 9.54687 334.242 9.46875C334.352 9.375 334.484 9.32812 334.641 9.32812H356.016C356.156 9.32812 356.281 9.375 356.391 9.46875C356.516 9.54687 356.617 9.6875 356.695 9.89062C356.773 10.0781 356.828 10.3359 356.859 10.6641C356.906 10.9922 356.93 11.3906 356.93 11.8594Z" fill="#DC2626"/>
</svg>
